:SAMPLES-PER-SECOND 30
:FRAME-RANGE 1-1770
:FULLY-SPECIFIED
:DEGREES
498
root  -36.6313 38.4131 11.2323 -165.249 85.6191 -163.086
RightUpLeg  -21.187 -3.37717 -9.36803
RightLeg  57.4509 -4.87053 -8.60431
RightFoot  2.99403 -1.2319 9.936
RightToes  6.35937e-011 1.2921e-014 -6.02303e-014
Spine  6.49955 -0.854398 -2.90734
Spine1  1.62806 -1.54091 -0.546181
HEad  -0.129943 4.16734 -5.03153
LeftShoulder1  1.6582 -0.682817 -33.5554
LeftArm  29.3849 -0.539272 -36.4699
LeftForeArm  -1.21465 -13.1797 -13.9546
LeftHand  0.293987 -2.13514 -4.36957
RightShoulder  6.02011 7.56404 47.6518
RightArm  29.2043 -2.21625 14.8506
RightForeArm  4.40928 15.5537 10.8991
RightHand  0.289466 4.93691 2.94763
LeftUpLeg  -3.53237 2.84505 -11.1911
LeftLeg  18.0746 7.0127 0.871591
LeftFoot  -15.7232 0.454318 9.37649
LeftToes  3.18074e-010 1.39432e-010 -7.71186e-011
499
root  -35.5164 38.5615 11.2669 -164.757 82.394 -162.378
RightUpLeg  -22.1531 -2.91577 -8.3007
RightLeg  48.0522 -6.49969 -8.00707
RightFoot  1.75411 -1.23066 10.797
RightToes  6.35937e-011 1.2921e-014 -6.02303e-014
Spine  5.99459 -1.0777 -2.26326
Spine1  2.12006 -1.72247 0.273576
HEad  -0.781232 1.95526 -4.48421
LeftShoulder1  1.74187 -0.919238 -33.3351
LeftArm  31.5154 -2.35719 -39.4975
LeftForeArm  -1.61007 -14.9834 -12.4913
LeftHand  0.290916 -2.41933 -4.14001
RightShoulder  6.13915 7.83112 47.4444
RightArm  24.9167 -1.40482 14.3109
RightForeArm  8.92592 13.412 12.2341
RightHand  0.277819 5.17631 2.73842
LeftUpLeg  -0.392263 3.13316 -9.65836
LeftLeg  16.471 3.84484 0.100893
LeftFoot  -16.1988 0.512465 9.75549
LeftToes  3.18074e-010 1.39432e-010 -7.71186e-011
500
root  -34.4143 38.6498 11.2811 -165.1 79.7848 -162.681
RightUpLeg  -22.2905 -3.00394 -7.25586
RightLeg  36.1093 -8.09725 -6.54342
RightFoot  1.86083 -1.49567 12.9838
RightToes  6.35937e-011 1.2921e-014 -6.02303e-014
Spine  5.42197 -1.27533 -1.85863
Spine1  2.5854 -1.87646 1.02654
HEad  -1.37848 0.15884 -3.91065
LeftShoulder1  1.80077 -1.10649 -33.0179
LeftArm  33.65 -3.97213 -42.0896
LeftForeArm  -2.60488 -16.9464 -10.7177
LeftHand  0.315197 -2.8739 -4.21654
RightShoulder  6.54386 8.52607 47.6499
RightArm  19.7941 -0.329167 13.5976
RightForeArm  13.142 10.3049 13.9029
RightHand  0.256956 5.03017 2.55397
LeftUpLeg  2.36287 3.48899 -8.29869
LeftLeg  15.0927 0.95592 -0.431599
LeftFoot  -16.7787 0.577907 10.0131
LeftToes  3.18074e-010 1.39432e-010 -7.71186e-011
501
root  -33.2817 38.6477 11.2675 -165.676 77.9707 -163.512
RightUpLeg  -21.851 -4.19788 -5.99458
RightLeg  22.26 -8.67472 -4.09041
RightFoot  2.4163 -1.74165 14.5036
RightToes  6.35937e-011 1.2921e-014 -6.02303e-014
Spine  4.57322 -1.41964 -1.65678
Spine1  3.07219 -1.96123 1.54686
HEad  -1.92774 -1.16326 -3.4535
LeftShoulder1  1.84445 -1.24972 -32.7627
LeftArm  35.955 -5.40937 -43.924
LeftForeArm  -4.37857 -19.2335 -8.4845
LeftHand  0.326992 -3.04837 -4.27776
RightShoulder  7.0616 9.40485 47.9181
RightArm  14.8158 0.958649 12.9915
RightForeArm  17.4804 6.7867 15.256
RightHand  0.238622 5.00249 2.35808
LeftUpLeg  4.58975 3.77732 -7.31015
LeftLeg  14.063 -1.17903 -0.70673
LeftFoot  -17.5174 0.652825 10.1154
LeftToes  3.18074e-010 1.39432e-010 -7.71186e-011
502
root  -32.0982 38.5512 11.2121 -167.426 76.7917 -165.516
RightUpLeg  -20.8356 -6.31862 -4.76468
RightLeg  8.04114 -8.35348 -0.756103
RightFoot  2.6019 -1.88477 15.4735
RightToes  6.35937e-011 1.2921e-014 -6.02303e-014
Spine  3.91215 -1.50469 -1.71247
Spine1  3.37628 -1.99364 1.87221
HEad  -2.34003 -1.81364 -3.32699
LeftShoulder1  1.87274 -1.35497 -32.5067
LeftArm  37.3319 -6.92719 -45.1912
LeftForeArm  -5.2948 -21.3883 -6.42084
LeftHand  0.353814 -3.3105 -4.48654
RightShoulder  7.53435 10.2162 48.1001
RightArm  11.0048 2.12733 12.7078
RightForeArm  20.9293 4.00356 15.8888
RightHand  0.22825 4.88211 2.27628
LeftUpLeg  6.8163 4.01464 -6.8162
LeftLeg  13.2122 -2.63287 -0.88879
LeftFoot  -18.4381 0.751515 10.297
LeftToes  3.18074e-010 1.39432e-010 -7.71186e-011
503
root  -30.8033 38.3047 11.148 -169.713 76.2195 -167.809
RightUpLeg  -19.9546 -5.11549 -4.78118
RightLeg  -3.16828 -11.0651 3.25331
RightFoot  2.42704 -2.00365 16.6269
RightToes  6.35937e-011 1.2921e-014 -6.02303e-014
Spine  3.45109 -1.43266 -1.91093
Spine1  3.61966 -1.81339 1.8418
HEad  -2.87988 -2.20093 -3.4448
LeftShoulder1  1.88785 -1.42162 -32.293
LeftArm  36.5007 -8.82866 -45.98
LeftForeArm  -3.65734 -23.3651 -5.24982
LeftHand  0.318017 -3.30593 -4.01129
RightShoulder  7.86844 10.7969 48.1904
RightArm  11.1894 2.64365 12.6116
RightForeArm  20.1794 4.30911 15.8559
RightHand  0.222048 4.87262 2.20895
LeftUpLeg  9.12613 4.57134 -6.44235
LeftLeg  13.249 -3.68199 -1.18969
LeftFoot  -20.1218 0.901094 10.1284
LeftToes  3.18074e-010 1.39432e-010 -7.71186e-011
504
root  -29.4343 37.9634 11.0734 -172.088 75.7355 -170.016
RightUpLeg  -21.0976 -4.34668 -3.95771
RightLeg  -6.19673 -13.3774 4.59755
RightFoot  -0.0928696 -1.87778 18.9023
RightToes  6.35937e-011 1.2921e-014 -6.02303e-014
Spine  3.47935 -1.45258 -2.16375
Spine1  3.54661 -1.67635 1.5951
HEad  -3.54734 -2.16917 -3.64901
LeftShoulder1  1.89477 -1.47125 -32.0503
LeftArm  32.9587 -11.0577 -46.443
LeftForeArm  0.393903 -25.1321 -5.36163
LeftHand  0.290726 -3.42149 -3.59021
RightShoulder  8.08153 11.1614 48.264
RightArm  12.7714 3.1285 12.7407
RightForeArm  18.0631 6.05797 15.4316
RightHand  0.222048 4.86079 2.21224
LeftUpLeg  11.3924 5.06216 -6.15979
LeftLeg  14.0881 -4.58793 -1.30491
LeftFoot  -22.0695 1.08301 10.0886
LeftToes  3.18074e-010 1.39432e-010 -7.71186e-011
505
root  -28.0695 37.6865 10.9578 -171.778 75.5773 -169.589
RightUpLeg  -22.0093 -2.87047 -2.29326
RightLeg  -5.0428 -14.6284 4.4969
RightFoot  -0.0934669 -1.57263 15.8699
RightToes  6.35937e-011 1.2921e-014 -6.02303e-014
Spine  4.03549 -1.42244 -1.59566
Spine1  3.48212 -1.71512 1.71257
HEad  -4.38937 -1.50059 -4.08695
LeftShoulder1  1.88536 -1.48315 -31.7702
LeftArm  28.8024 -12.95 -46.5669
LeftForeArm  4.34973 -27.4213 -5.67908
LeftHand  0.256318 -3.45158 -3.1237
RightShoulder  8.33704 11.6582 48.1539
RightArm  15.9879 3.66051 13.0276
RightForeArm  14.854 8.78955 14.5281
RightHand  0.215363 4.88289 2.13067
LeftUpLeg  13.6826 5.48211 -5.34638
LeftLeg  14.5175 -5.14233 -1.30741
LeftFoot  -23.5899 1.13598 9.23975
LeftToes  3.18074e-010 1.39432e-010 -7.71186e-011
506
root  -26.5736 37.3677 10.7604 -171.771 74.9274 -169.624
RightUpLeg  -22.8504 -2.26847 -0.877727
RightLeg  0.206838 -15.8089 3.78925
RightFoot  0.2099 -1.66297 16.3528
RightToes  6.35937e-011 1.2921e-014 -6.02303e-014
Spine  4.25796 -1.74511 -1.15748
Spine1  3.49206 -2.21169 2.11834
HEad  -5.08944 -0.387122 -5.02536
LeftShoulder1  1.89321 -1.5106 -31.7199
LeftArm  24.8903 -14.4049 -46.4719
LeftForeArm  8.31071 -30.064 -6.09492
LeftHand  0.221746 -3.47169 -2.66183
RightShoulder  8.46477 12.0535 47.64
RightArm  19.8763 4.10725 13.3711
RightForeArm  11.4797 12.1458 12.8447
RightHand  0.234664 5.00746 2.31253
LeftUpLeg  15.5704 5.50025 -4.625
LeftLeg  15.9371 -5.75331 -1.3523
LeftFoot  -24.8603 1.06735 7.72825
LeftToes  3.18074e-010 1.39432e-010 -7.71186e-011
507
root  -25.0961 37.3354 10.5053 -168.925 73.4402 -167.045
RightUpLeg  -24.9494 -2.5986 1.69185
RightLeg  7.06296 -12.745 1.69021
RightFoot  3.72665 -1.02095 7.90061
RightToes  6.35937e-011 1.2921e-014 -6.02303e-014
Spine  4.51777 -2.15301 0.532534
Spine1  3.54931 -3.06476 3.3907
HEad  -5.2478 0.26746 -6.11939
LeftShoulder1  1.92957 -1.59434 -31.8143
LeftArm  22.1119 -15.5633 -46.634
LeftForeArm  11.8579 -32.4599 -6.49456
LeftHand  0.196509 -3.53937 -2.30826
RightShoulder  8.23084 11.8876 46.8074
RightArm  25.6489 4.15328 13.6024
RightForeArm  5.5934 16.4049 9.98539
RightHand  0.245338 4.95382 2.44746
LeftUpLeg  17.3171 4.36383 -3.13406
LeftLeg  16.3588 -6.00407 -1.36535
LeftFoot  -24.0163 0.742055 5.37557
LeftToes  3.18074e-010 1.39432e-010 -7.71186e-011
508
root  -23.5009 37.2441 10.1609 -165.324 72.1301 -163.45
RightUpLeg  -26.4821 -4.65754 4.66466
RightLeg  13.0893 -9.67832 -0.811331
RightFoot  8.77441 -0.854828 5.15658
RightToes  6.35937e-011 1.2921e-014 -6.02303e-014
Spine  5.13264 -2.55615 3.55183
Spine1  2.68292 -3.34222 3.37903
HEad  -5.1248 0.837849 -7.45389
LeftShoulder1  1.95738 -1.58935 -32.3979
LeftArm  19.9992 -16.6662 -46.7825
LeftForeArm  14.6281 -34.7047 -6.92273
LeftHand  0.184284 -3.57042 -2.13944
RightShoulder  7.90245 11.4773 46.1565
RightArm  28.1024 4.52274 13.2242
RightForeArm  2.20267 19.4368 7.40838
RightHand  0.243768 5.01825 2.41082
LeftUpLeg  18.2009 3.28733 -1.11824
LeftLeg  19.2612 -5.91037 -1.95783
LeftFoot  -22.7799 0.360608 2.23372
LeftToes  3.18074e-010 1.39432e-010 -7.71186e-011
